<?xml version="1.0" standalone="no"?>
<!DOCTYPE svg PUBLIC "-//W3C//DTD SVG 20010904//EN"
 "http://www.w3.org/TR/2001/REC-SVG-20010904/DTD/svg10.dtd">
<svg version="1.0" xmlns="http://www.w3.org/2000/svg"
 width="1024.000000pt" height="1024.000000pt" viewBox="0 0 1024.000000 1024.000000"
 preserveAspectRatio="xMidYMid meet">

<g transform="translate(0.000000,1024.000000) scale(0.100000,-0.100000)"
fill="#000000" stroke="none">
<path d="M0 5120 l0 -5120 5120 0 5120 0 0 5120 0 5120 -5120 0 -5120 0 0
-5120z m6278 3478 c8 -8 11 -46 10 -117 l-2 -106 -5 110 -6 110 -65 6 -65 6
61 1 c35 1 65 -3 72 -10z m-808 -8 l-375 -5 -5 -2220 -5 -2220 -3 2216 c-1
1712 1 2218 10 2227 9 9 105 11 383 10 l370 -3 -375 -5z m827 -277 c-3 -10 -5
-2 -5 17 0 19 2 27 5 18 2 -10 2 -26 0 -35z m10 -60 c-3 -10 -5 -4 -5 12 0 17
2 24 5 18 2 -7 2 -21 0 -30z m58 -201 c-4 -5 -55 155 -54 171 0 7 13 -28 29
-78 16 -49 27 -91 25 -93z m25 -47 c0 -5 -5 -3 -10 5 -5 8 -10 20 -10 25 0 6
5 3 10 -5 5 -8 10 -19 10 -25z m34 -72 c9 -18 14 -33 12 -33 -6 0 -36 55 -36
66 0 11 5 3 24 -33z m55 -98 c13 -22 15 -31 6 -20 -18 22 -53 86 -38 70 6 -5
20 -28 32 -50z m106 -150 c27 -33 37 -50 23 -37 -14 13 -40 44 -58 70 -41 59
-27 45 35 -33z m225 -229 c46 -40 47 -43 10 -15 -25 19 -77 66 -116 104 -61
60 -62 62 -10 15 34 -30 86 -77 116 -104z m220 -153 c3 -3 -6 0 -20 7 -34 18
-140 90 -140 95 0 5 150 -91 160 -102z m156 -81 c-5 -4 -146 66 -146 73 0 3
34 -12 75 -32 41 -20 73 -39 71 -41z m69 -23 c22 -10 29 -16 15 -13 -28 7 -80
33 -65 33 6 0 28 -9 50 -20z m200 -63 c28 -8 41 -14 30 -14 -21 0 -107 25 -90
27 6 0 33 -6 60 -13z m82 -22 c-3 -3 -12 -4 -19 -1 -8 3 -5 6 6 6 11 1 17 -2
13 -5z m66 -11 c-7 -2 -21 -2 -30 0 -10 3 -4 5 12 5 17 0 24 -2 18 -5z m75
-10 c-10 -2 -28 -2 -40 0 -13 2 -5 4 17 4 22 1 32 -1 23 -4z m145 -10 c-24 -2
-62 -2 -85 0 -24 2 -5 4 42 4 47 0 66 -2 43 -4z m65 -534 l-3 -514 -5 522 c-3
287 -2 519 3 514 4 -4 6 -239 5 -522z m-1538 -182 c80 -52 100 -68 60 -47 -34
18 -160 102 -160 107 0 5 5 2 100 -60z m-2162 -64 c-21 -2 -55 -2 -75 0 -21 2
-4 4 37 4 41 0 58 -2 38 -4z m310 0 c-21 -2 -57 -2 -80 0 -24 2 -7 4 37 4 44
0 63 -2 43 -4z m2022 -38 c0 -3 -18 4 -40 15 -22 11 -40 23 -40 25 0 3 18 -4
40 -15 22 -11 40 -23 40 -25z m-2477 28 c-13 -2 -33 -2 -45 0 -13 2 -3 4 22 4
25 0 35 -2 23 -4z m532 -573 c0 -457 -3 -574 -13 -576 -7 -1 -8 0 -2 3 7 3 10
195 10 573 0 378 -3 570 -10 573 -6 3 -5 4 2 3 10 -2 13 -119 13 -576z m-617
563 c-10 -2 -26 -2 -35 0 -10 3 -2 5 17 5 19 0 27 -2 18 -5z m-65 -10 c-7 -2
-19 -2 -25 0 -7 3 -2 5 12 5 14 0 19 -2 13 -5z m-50 -10 c-7 -2 -19 -2 -25 0
-7 3 -2 5 12 5 14 0 19 -2 13 -5z m-46 -9 c-3 -3 -12 -4 -19 -1 -8 3 -5 6 6 6
11 1 17 -2 13 -5z m-92 -25 c-33 -10 -64 -18 -70 -18 -15 1 97 38 115 37 8 0
-12 -8 -45 -19z m2945 -24 c25 -13 41 -24 35 -24 -5 0 -30 11 -55 24 -25 13
-40 24 -35 24 6 0 30 -11 55 -24z m-3100 -25 c-8 -5 -19 -10 -25 -10 -5 0 -3
5 5 10 8 5 20 10 25 10 6 0 3 -5 -5 -10z m2687 -1522 c-1 -282 -2 -52 -2 512
0 564 1 794 2 513 2 -282 2 -744 0 -1025z m493 1512 c8 -5 11 -10 5 -10 -5 0
-17 5 -25 10 -8 5 -10 10 -5 10 6 0 17 -5 25 -10z m-3230 -10 c-8 -5 -19 -10
-25 -10 -5 0 -3 5 5 10 8 5 20 10 25 10 6 0 3 -5 -5 -10z m3280 -10 c8 -5 11
-10 5 -10 -5 0 -17 5 -25 10 -8 5 -10 10 -5 10 6 0 17 -5 25 -10z m-3360 -25
c-14 -8 -29 -14 -35 -14 -5 0 1 6 15 14 14 8 30 14 35 14 6 0 -1 -6 -15 -14z
m3440 -7 c10 -6 7 -7 -10 -2 -14 3 -32 11 -40 16 -10 6 -7 7 10 2 14 -3 32
-11 40 -16z m-3530 -33 c0 -2 -22 -16 -50 -30 -27 -14 -50 -23 -50 -20 0 2 21
16 48 29 53 28 52 28 52 21z m3685 -15 c13 -5 14 -9 5 -9 -8 0 -24 4 -35 9
-13 5 -14 9 -5 9 8 0 24 -4 35 -9z m52 -16 c-3 -3 -12 -4 -19 -1 -8 3 -5 6 6
6 11 1 17 -2 13 -5z m40 -10 c-3 -3 -12 -4 -19 -1 -8 3 -5 6 6 6 11 1 17 -2
13 -5z m40 -10 c-3 -3 -12 -4 -19 -1 -8 3 -5 6 6 6 11 1 17 -2 13 -5z m-3927
-9 c0 -2 -10 -9 -22 -15 -22 -11 -22 -10 -4 4 21 17 26 19 26 11z m3973 -2
c-7 -2 -19 -2 -25 0 -7 3 -2 5 12 5 14 0 19 -2 13 -5z m44 -9 c-3 -3 -12 -4
-19 -1 -8 3 -5 6 6 6 11 1 17 -2 13 -5z m56 -11 c-7 -2 -21 -2 -30 0 -10 3 -4
5 12 5 17 0 24 -2 18 -5z m607 -23 c0 -20 -7 -33 -22 -40 -21 -10 -21 -10 -5
3 9 8 17 26 17 41 0 14 2 26 5 26 3 0 5 -13 5 -30z m-4730 16 c0 -2 -26 -20
-57 -41 -115 -75 -230 -171 -343 -285 -79 -80 -95 -93 -50 -42 94 107 229 224
369 321 73 50 81 55 81 47z m4183 -3 c-7 -2 -21 -2 -30 0 -10 3 -4 5 12 5 17
0 24 -2 18 -5z m92 -12 c34 -7 35 -9 10 -9 -16 0 -43 4 -60 8 -42 11 -1 11 50
1z m103 -18 c-10 -2 -26 -2 -35 0 -10 3 -2 5 17 5 19 0 27 -2 18 -5z m95 -10
c-13 -2 -33 -2 -45 0 -13 2 -3 4 22 4 25 0 35 -2 23 -4z m140 -10 c-18 -2 -48
-2 -65 0 -18 2 -4 4 32 4 36 0 50 -2 33 -4z m-5170 -453 c-25 -33 -48 -60 -51
-60 -5 0 1 9 52 73 20 26 39 47 42 47 2 0 -17 -27 -43 -60z m-69 -95 c-9 -14
-18 -25 -21 -25 -5 0 5 18 20 38 17 22 18 13 1 -13z m-85 -142 c-23 -43 -46
-82 -52 -88 -11 -12 25 62 60 123 42 71 36 46 -8 -35z m1899 -90 c-32 -2 -86
-2 -120 0 -35 2 -9 3 57 3 66 0 94 -1 63 -3z m-195 -10 c-7 -2 -21 -2 -30 0
-10 3 -4 5 12 5 17 0 24 -2 18 -5z m300 0 c-7 -2 -19 -2 -25 0 -7 3 -2 5 12 5
14 0 19 -2 13 -5z m-2082 -50 c-11 -21 -20 -35 -21 -31 0 12 33 78 38 74 2 -2
-6 -21 -17 -43z m1722 40 c-7 -2 -19 -2 -25 0 -7 3 -2 5 12 5 14 0 19 -2 13
-5z m410 0 c-7 -2 -19 -2 -25 0 -7 3 -2 5 12 5 14 0 19 -2 13 -5z m-468 -13
c-11 -5 -27 -9 -35 -9 -9 0 -8 4 5 9 11 5 27 9 35 9 9 0 8 -4 -5 -9z m-95 -30
c-8 -5 -19 -10 -25 -10 -5 0 -3 5 5 10 8 5 20 10 25 10 6 0 3 -5 -5 -10z m-80
-34 c0 -2 -7 -7 -16 -10 -8 -3 -12 -2 -9 4 6 10 25 14 25 6z m-40 -21 c0 -2
-10 -9 -22 -15 -22 -11 -22 -10 -4 4 21 17 26 19 26 11z m-1489 -32 c-12 -20
-14 -14 -5 12 4 9 9 14 11 11 3 -2 0 -13 -6 -23z m1404 -22 c-6 -4 -30 -25
-55 -46 l-45 -37 48 46 c27 25 52 46 55 46 3 0 2 -4 -3 -9z m-1444 -92 c-16
-46 -30 -80 -30 -74 -1 15 50 167 55 162 2 -2 -9 -41 -25 -88z m1284 -54 c-32
-36 -60 -65 -63 -65 -5 0 8 16 82 98 54 59 39 33 -19 -33z m-1321 -69 c-3 -15
-8 -25 -11 -23 -2 3 -1 17 3 31 3 15 8 25 11 23 2 -3 1 -17 -3 -31z m1256 -10
c0 -2 -8 -10 -17 -17 -16 -13 -17 -12 -4 4 13 16 21 21 21 13z m-1273 -58 c-3
-8 -6 -5 -6 6 -1 11 2 17 5 13 3 -3 4 -12 1 -19z m1222 -15 c-12 -21 -27 -42
-32 -48 -11 -11 9 29 31 63 24 37 25 25 1 -15z m-1232 -25 c-3 -8 -6 -5 -6 6
-1 11 2 17 5 13 3 -3 4 -12 1 -19z m-10 -55 c-3 -10 -5 -4 -5 12 0 17 2 24 5
18 2 -7 2 -21 0 -30z m1179 -40 c-8 -15 -15 -25 -16 -21 0 12 23 58 27 54 3
-2 -2 -17 -11 -33z m-1189 -20 c-3 -10 -5 -4 -5 12 0 17 2 24 5 18 2 -7 2 -21
0 -30z m1159 -59 c-8 -21 -15 -34 -15 -28 -1 15 20 76 25 71 2 -2 -2 -21 -10
-43z m-1169 -21 c-3 -10 -5 -2 -5 17 0 19 2 27 5 18 2 -10 2 -26 0 -35z m1150
-45 c-3 -8 -6 -5 -6 6 -1 11 2 17 5 13 3 -3 4 -12 1 -19z m-1160 -70 c-2 -18
-4 -6 -4 27 0 33 2 48 4 33 2 -15 2 -42 0 -60z m1150 20 c-3 -7 -5 -2 -5 12 0
14 2 19 5 13 2 -7 2 -19 0 -25z m-10 -65 c-3 -10 -5 -2 -5 17 0 19 2 27 5 18
2 -10 2 -26 0 -35z m-1150 -115 c-2 -18 -4 -6 -4 27 0 33 2 48 4 33 2 -15 2
-42 0 -60z m1140 -51 c-2 -23 -3 -1 -3 48 0 50 1 68 3 42 2 -26 2 -67 0 -90z
m1750 -74 c-3 -10 -5 -2 -5 17 0 19 2 27 5 18 2 -10 2 -26 0 -35z m-2880 -40
c-2 -16 -4 -3 -4 27 0 30 2 43 4 28 2 -16 2 -40 0 -55z m4030 0 c-2 -16 -4 -5
-4 22 0 28 2 40 4 28 2 -13 2 -35 0 -50z m-2890 20 c-3 -10 -5 -4 -5 12 0 17
2 24 5 18 2 -7 2 -21 0 -30z m1730 -35 c-3 -7 -5 -2 -5 12 0 14 2 19 5 13 2
-7 2 -19 0 -25z m-1720 -20 c-3 -7 -5 -2 -5 12 0 14 2 19 5 13 2 -7 2 -19 0
-25z m1710 -20 c-3 -8 -6 -5 -6 6 -1 11 2 17 5 13 3 -3 4 -12 1 -19z m1160
-25 c-3 -10 -5 -2 -5 17 0 19 2 27 5 18 2 -10 2 -26 0 -35z m-4010 -10 c-3
-10 -5 -2 -5 17 0 19 2 27 5 18 2 -10 2 -26 0 -35z m1162 -13 c0 -9 -4 -8 -9
5 -5 11 -9 27 -9 35 0 9 4 8 9 -5 5 -11 9 -27 9 -35z m1671 -15 c-16 -47 -23
-40 -8 8 6 20 13 35 16 33 2 -3 -1 -21 -8 -41z m1167 -22 c-3 -10 -5 -4 -5 12
0 17 2 24 5 18 2 -7 2 -21 0 -30z m-3990 -10 c-3 -10 -5 -4 -5 12 0 17 2 24 5
18 2 -7 2 -21 0 -30z m1183 -38 c0 -5 -5 -3 -10 5 -5 8 -10 20 -10 25 0 6 5 3
10 -5 5 -8 10 -19 10 -25z m1606 -12 c-8 -15 -15 -25 -16 -21 0 12 23 58 27
54 3 -2 -2 -17 -11 -33z m1191 5 c-3 -7 -5 -2 -5 12 0 14 2 19 5 13 2 -7 2
-19 0 -25z m-3959 -53 c0 -16 -2 -15 -8 5 -4 14 -8 34 -8 45 0 16 2 15 8 -5 4
-14 8 -34 8 -45z m3949 3 c-3 -7 -5 -2 -5 12 0 14 2 19 5 13 2 -7 2 -19 0 -25z
m-2758 -8 c11 -24 11 -24 -3 -6 -9 11 -16 24 -16 30 0 12 5 7 19 -24z m1536
-28 c-14 -26 -37 -61 -51 -77 -22 -26 -21 -23 4 15 16 25 37 60 46 78 9 17 19
32 22 32 3 0 -6 -22 -21 -48z m1209 -21 c-4 -17 -9 -30 -11 -27 -3 2 -2 19 2
36 9 41 17 33 9 -9z m-3927 7 c-3 -8 -6 -5 -6 6 -1 11 2 17 5 13 3 -3 4 -12 1
-19z m1218 -14 c9 -15 12 -23 6 -20 -11 7 -35 46 -28 46 3 0 12 -12 22 -26z
m-1208 -26 c-3 -8 -6 -5 -6 6 -1 11 2 17 5 13 3 -3 4 -12 1 -19z m1259 -45
c15 -20 23 -33 16 -29 -13 8 -56 66 -49 66 3 0 17 -17 33 -37z m2638 3 c-3
-15 -8 -25 -11 -23 -2 3 -1 17 3 31 3 15 8 25 11 23 2 -3 1 -17 -3 -31z
m-3887 2 c-3 -8 -6 -5 -6 6 -1 11 2 17 5 13 3 -3 4 -12 1 -19z m2623 -21 c0
-2 -12 -14 -27 -28 l-28 -24 24 28 c23 25 31 32 31 24z m-1180 -180 c30 -25
29 -24 -11 3 -25 17 -72 59 -105 93 l-59 61 70 -64 c39 -36 86 -78 105 -93z
m-1401 78 c0 -5 -4 -3 -9 5 -5 8 -9 22 -9 30 0 16 17 -16 18 -35z m2481 -6
c-30 -28 -68 -60 -85 -71 -16 -11 -10 -3 15 18 25 22 61 54 80 71 19 18 37 32
40 32 3 0 -20 -23 -50 -50z m1309 -38 c-6 -18 -13 -30 -15 -28 -2 2 1 18 7 36
6 18 13 30 15 28 2 -2 -1 -18 -7 -36z m-3759 -36 c0 -5 -5 -3 -10 5 -5 8 -10
20 -10 25 0 6 5 3 10 -5 5 -8 10 -19 10 -25z m3731 -32 c-12 -20 -14 -14 -5
12 4 9 9 14 11 11 3 -2 0 -13 -6 -23z m-3702 -38 c0 -5 -6 1 -14 15 -8 14 -14
30 -14 35 0 6 6 -1 14 -15 8 -14 14 -29 14 -35z m1421 19 c0 -2 -9 0 -20 6
-11 6 -20 13 -20 16 0 2 9 0 20 -6 11 -6 20 -13 20 -16z m850 11 c0 -2 -13
-11 -30 -20 -38 -19 -40 -11 -2 9 31 17 32 18 32 11z m-774 -53 c-5 -4 -66 26
-66 33 0 3 16 -3 35 -12 19 -9 33 -18 31 -21z m684 3 c-14 -8 -29 -14 -35 -14
-5 0 1 6 15 14 14 8 30 14 35 14 6 0 -1 -6 -15 -14z m1461 -74 c-23 -45 -43
-81 -46 -81 -3 0 14 38 37 85 23 46 44 83 46 81 2 -2 -15 -40 -37 -85z m-3592
-8 c23 -46 39 -83 36 -83 -5 0 -85 156 -85 166 0 12 7 1 49 -83z m1491 67 c8
-5 11 -10 5 -10 -5 0 -17 5 -25 10 -8 5 -10 10 -5 10 6 0 17 -5 25 -10z m100
-30 c20 -6 21 -8 5 -8 -11 0 -29 3 -40 8 -25 11 1 11 35 0z m380 -10 c-14 -4
-36 -8 -50 -8 -22 0 -22 1 5 8 17 4 39 8 50 8 16 0 15 -2 -5 -8z m-317 -7 c-7
-2 -19 -2 -25 0 -7 3 -2 5 12 5 14 0 19 -2 13 -5z m180 -10 c-29 -2 -78 -2
-110 0 -32 2 -8 3 52 3 61 0 87 -1 58 -3z m-1754 -158 c13 -22 15 -31 6 -20
-18 22 -53 86 -38 70 6 -5 20 -28 32 -50z m3441 25 c-6 -11 -13 -20 -16 -20
-2 0 0 9 6 20 6 11 13 20 16 20 2 0 0 -9 -6 -20z m-26 -42 c-21 -36 -85 -128
-89 -128 -3 0 16 32 41 70 26 39 49 70 51 70 2 0 1 -6 -3 -12z m-3359 -70 c16
-24 22 -38 14 -31 -15 12 -53 73 -46 73 2 0 17 -19 32 -42z m76 -105 c24 -32
61 -79 84 -104 22 -25 15 -20 -15 11 -52 54 -127 150 -117 150 3 0 24 -26 48
-57z m3146 -21 c-62 -80 -176 -200 -250 -264 -34 -29 -7 1 59 67 67 66 145
150 173 188 29 37 55 67 57 67 3 0 -15 -26 -39 -58z m-2847 -299 c0 -7 -158
136 -167 151 -4 6 32 -24 80 -68 48 -43 87 -81 87 -83z m168 -118 c39 -26 72
-50 72 -52 0 -11 -193 122 -216 149 -10 12 1 6 26 -14 25 -19 78 -57 118 -83z
m2352 90 c-7 -9 -27 -25 -44 -37 -23 -15 -21 -11 9 16 43 38 55 45 35 21z
m-102 -78 c-29 -24 -98 -66 -86 -52 10 11 102 74 108 74 3 0 -7 -10 -22 -22z
m-98 -62 c0 -2 -10 -9 -22 -15 -22 -11 -22 -10 -4 4 21 17 26 19 26 11z
m-1855 -123 c-4 -5 -175 84 -201 103 -10 8 31 -11 93 -42 61 -32 110 -60 108
-61z m1805 93 c0 -2 -18 -14 -40 -25 -22 -11 -40 -18 -40 -15 0 2 17 13 38 24
42 23 42 23 42 16z m-195 -100 c-38 -19 -74 -34 -80 -34 -13 0 127 67 140 67
6 0 -21 -15 -60 -33z m-1545 -15 c8 -5 11 -10 5 -10 -5 0 -17 5 -25 10 -8 5
-10 10 -5 10 6 0 17 -5 25 -10z m50 -20 c8 -5 11 -10 5 -10 -5 0 -17 5 -25 10
-8 5 -10 10 -5 10 6 0 17 -5 25 -10z m1400 -4 c0 -6 -93 -37 -97 -32 -2 2 15
11 39 19 47 17 58 19 58 13z m-1270 -43 c30 -11 31 -12 6 -8 -16 4 -43 13 -60
20 -23 11 -25 13 -6 8 14 -3 41 -12 60 -20z m1145 -3 c-11 -5 -27 -9 -35 -9
-9 0 -8 4 5 9 11 5 27 9 35 9 9 0 8 -4 -5 -9z m-1078 -16 c-3 -3 -12 -4 -19
-1 -8 3 -5 6 6 6 11 1 17 -2 13 -5z m1008 -4 c-11 -5 -29 -8 -40 -8 -16 0 -15
2 5 8 34 11 60 11 35 0z m-968 -6 c-3 -3 -12 -4 -19 -1 -8 3 -5 6 6 6 11 1 17
-2 13 -5z m40 -10 c-3 -3 -12 -4 -19 -1 -8 3 -5 6 6 6 11 1 17 -2 13 -5z m860
0 c-3 -3 -12 -4 -19 -1 -8 3 -5 6 6 6 11 1 17 -2 13 -5z m-814 -11 c-7 -2 -19
-2 -25 0 -7 3 -2 5 12 5 14 0 19 -2 13 -5z m770 0 c-7 -2 -19 -2 -25 0 -7 3
-2 5 12 5 14 0 19 -2 13 -5z m-710 -10 c-7 -2 -19 -2 -25 0 -7 3 -2 5 12 5 14
0 19 -2 13 -5z m660 0 c-7 -2 -21 -2 -30 0 -10 3 -4 5 12 5 17 0 24 -2 18 -5z
m-585 -10 c-10 -2 -28 -2 -40 0 -13 2 -5 4 17 4 22 1 32 -1 23 -4z m520 0
c-10 -2 -26 -2 -35 0 -10 3 -2 5 17 5 19 0 27 -2 18 -5z m-420 -10 c-16 -2
-40 -2 -55 0 -16 2 -3 4 27 4 30 0 43 -2 28 -4z m345 0 c-13 -2 -35 -2 -50 0
-16 2 -5 4 22 4 28 0 40 -2 28 -4z m-145 -10 c-26 -2 -71 -2 -100 0 -29 2 -8
3 47 3 55 0 79 -1 53 -3z"/>
</g>
</svg>
